<svg
  viewBox="0 0 24 24"
  xmlns="http://www.w3.org/2000/svg"
>
  <path d="M -0.036 -0.012 L 23.997 -0.012 L 23.997 24.021 L -0.036 24.021 L -0.036 -0.012 Z" style="fill: rgb(247, 223, 30);" transform="matrix(1, 0, 0, 1, 4.440892098500626e-16, 4.440892098500626e-16)"/>
  <path d="M 22.03 18.289 C 21.855 17.193 21.139 16.273 19.022 15.414 C 18.286 15.076 17.466 14.832 17.221 14.275 C 17.135 13.951 17.123 13.768 17.178 13.572 C 17.335 12.934 18.096 12.736 18.7 12.918 C 19.088 13.049 19.455 13.348 19.678 13.826 C 20.715 13.154 20.712 13.158 21.436 12.698 C 21.171 12.285 21.03 12.097 20.856 11.921 C 20.232 11.224 19.382 10.865 18.023 10.892 C 17.788 10.922 17.551 10.954 17.315 10.983 C 16.637 11.155 15.991 11.511 15.61 11.989 C 14.473 13.28 14.798 15.539 16.182 16.468 C 17.546 17.492 19.55 17.725 19.805 18.683 C 20.054 19.855 18.943 20.234 17.841 20.099 C 17.027 19.93 16.575 19.517 16.087 18.765 C 15.186 19.285 15.186 19.285 14.26 19.819 C 14.48 20.297 14.711 20.514 15.078 20.931 C 16.819 22.697 21.177 22.609 21.957 19.937 C 21.989 19.845 22.199 19.233 22.03 18.289 Z M 13.029 11.034 L 10.781 11.034 C 10.781 12.976 10.772 14.904 10.772 16.846 C 10.772 18.082 10.836 19.215 10.635 19.562 C 10.306 20.246 9.454 20.16 9.065 20.027 C 8.67 19.833 8.469 19.558 8.237 19.167 C 8.173 19.055 8.125 18.969 8.109 18.961 C 7.499 19.333 6.891 19.708 6.28 20.081 C 6.585 20.704 7.032 21.246 7.606 21.598 C 8.463 22.112 9.613 22.27 10.818 21.993 C 11.602 21.764 12.277 21.291 12.631 20.571 C 13.143 19.628 13.034 18.486 13.029 17.222 C 13.041 15.162 13.029 13.101 13.029 11.034 Z" style="" transform="matrix(1, 0, 0, 1, 4.440892098500626e-16, 4.440892098500626e-16)"/>
</svg>
