<svg
  viewBox="0 0 24 24"
  fill="none"
  xmlns="http://www.w3.org/2000/svg"
>
  <mask id="mask0_11995_65555" maskUnits="userSpaceOnUse" x="7" y="4" width="35" height="40">
    <path d="M8.6343 9.51691C13.335 8.13331 20.6015 5.96604 23.3769 5.1375C24.1149 4.91717 24.8957 4.91313 25.6349 5.12944C28.2981 5.90876 35.1388 7.91899 40.276 9.50277C41.1119 9.76049 41.6815 10.5526 41.6643 11.4272C41.1766 36.2674 28.5102 41.9425 25.2609 42.9912C24.768 43.1503 24.2455 43.1506 23.7521 42.9928C20.4864 41.9486 7.71605 36.2842 7.21511 11.4553C7.19719 10.5673 7.78225 9.76771 8.6343 9.51691Z" fill="#D9D9D9"/>
  </mask>
  <g mask="url(#mask0_11995_65555)" style="" transform="matrix(0.5637270212173462, 0, 0, 0.5637270212173462, -1.8189920186996462, -1.521986961364746)">
    <path d="M24.507 23.4592L24.2366 4.12395L42.7605 9.12676L24.507 23.4592Z" style="fill: rgb(32, 171, 244);"/>
    <path d="M24.5068 23.4592V4.8L6.79415 9.5324L4.36035 21.0254L12.0674 33.0592L24.5068 23.4592Z" style="fill: rgb(19, 208, 205);"/>
    <path d="M42.2197 9.53239L11.7971 33.0592V43.7408H41.814L42.2197 9.53239Z" style="fill: rgb(175, 37, 224);"/>
  </g>
</svg>
