<svg
  viewBox="0 0 24 24"
  xmlns="http://www.w3.org/2000/svg"
>
  <defs>
    <linearGradient id="a" x1="68.188%" x2="27.823%" y1="17.487%" y2="89.755%">
      <stop offset="0" stop-color="#41873F"/>
      <stop offset="0.3288" stop-color="#418B3D"/>
      <stop offset="0.6352" stop-color="#419637"/>
      <stop offset="0.9319" stop-color="#3FA92D"/>
      <stop offset="1" stop-color="#3FAE2A"/>
    </linearGradient>
    <linearGradient id="c" x1="43.277%" x2="159.245%" y1="55.169%" y2="-18.306%">
      <stop offset="0.1376" stop-color="#41873F"/>
      <stop offset="0.4032" stop-color="#54A044"/>
      <stop offset="0.7136" stop-color="#66B848"/>
      <stop offset="0.9081" stop-color="#6CC04A"/>
    </linearGradient>
    <linearGradient id="f" x1="-4.389%" x2="101.499%" y1="49.997%" y2="49.997%">
      <stop offset="0.0919" stop-color="#6CC04A"/>
      <stop offset="0.2864" stop-color="#66B848"/>
      <stop offset="0.5968" stop-color="#54A044"/>
      <stop offset="0.8624" stop-color="#41873F"/>
    </linearGradient>
  </defs>
  <mask id="d" fill="#fff">
    <path d="M 167.411 -6.768 C 163.067 -9.211 157.909 -9.211 153.565 -6.768 L 39.275 59.201 C 34.931 61.644 32.488 66.259 32.488 71.145 L 32.488 203.353 C 32.488 208.24 35.203 212.855 39.275 215.298 L 153.565 281.266 C 157.909 283.71 163.067 283.71 167.411 281.266 L 281.701 215.298 C 286.045 212.855 288.488 208.24 288.488 203.353 L 288.488 71.145 C 288.488 66.259 285.773 61.644 281.701 59.201 L 167.411 -6.768 Z"/>
  </mask>
  <mask id="g" fill="#fff">
    <path d="M 167.411 -6.768 C 163.067 -9.211 157.909 -9.211 153.565 -6.768 L 39.275 59.201 C 34.931 61.644 32.488 66.259 32.488 71.145 L 32.488 203.353 C 32.488 208.24 35.203 212.855 39.275 215.298 L 153.565 281.266 C 157.909 283.71 163.067 283.71 167.411 281.266 L 281.701 215.298 C 286.045 212.855 288.488 208.24 288.488 203.353 L 288.488 71.145 C 288.488 66.259 285.773 61.644 281.701 59.201 L 167.411 -6.768 Z"/>
  </mask>
  <g style="" transform="matrix(0.07704301178455353, 0, 0, 0.07704301178455353, -0.32374700903892517, 1.4257540702819824)">
    <path fill="url(#a)" d="M 167.411 -6.768 C 163.067 -9.211 157.909 -9.211 153.565 -6.768 L 39.275 59.201 C 34.931 61.644 32.488 66.259 32.488 71.145 L 32.488 203.353 C 32.488 208.24 35.203 212.855 39.275 215.298 L 153.565 281.266 C 157.909 283.71 163.067 283.71 167.411 281.266 L 281.701 215.298 C 286.045 212.855 288.488 208.24 288.488 203.353 L 288.488 71.145 C 288.488 66.259 285.773 61.644 281.701 59.201 L 167.411 -6.768 Z"/>
    <path fill="url(#c)" d="M 281.973 59.2 L 167.138 -6.767 C 166.052 -7.309 164.695 -7.852 163.609 -8.124 L 34.931 212.312 C 36.017 213.669 37.375 214.755 38.731 215.57 L 153.565 281.538 C 156.823 283.438 160.624 283.981 164.153 282.895 L 284.958 61.915 C 284.143 60.829 283.058 60.015 281.972 59.201 L 281.973 59.2 Z" mask="url(#d)"/>
    <path fill="url(#f)" d="M 282.244 215.298 C 285.502 213.398 287.945 210.14 289.031 206.611 L 163.067 -8.396 C 159.809 -8.939 156.28 -8.668 153.294 -6.768 L 39.274 58.93 L 162.253 283.168 C 163.881 282.896 165.782 282.353 167.411 281.538 L 282.244 215.299 L 282.244 215.298 Z" mask="url(#g)"/>
  </g>
</svg>
