<svg
  viewBox="0 0 24 24"
  xmlns="http://www.w3.org/2000/svg"
>
  <g transform="matrix(0.10974600166082382, 0, 0, 0.10974600166082382, 0.4237399995326996, -5.018849849700928)" style="">
    <path d="M 210.8 176.367 C 209.146 172.234 205.84 169.754 201.706 168.927 L 195.092 169.754 L 183.518 171.407 C 193.439 154.873 201.706 135.858 205.84 117.67 C 213.28 89.561 209.973 76.334 205.013 70.547 C 192.783 54.673 173.793 45.484 153.756 45.745 C 142.182 45.745 131.434 48.225 126.474 49.879 L 110.766 48.225 C 100.846 48.225 90.925 50.706 83.485 54.839 L 64.47 49.879 C 45.455 47.399 29.748 49.879 19 57.319 C 5.773 67.24 -0.841 83.774 -0.014 106.923 C 3.692 134.651 11.493 161.676 23.134 187.115 C 28.921 198.689 34.708 205.303 42.148 206.956 C 46.282 208.61 52.896 209.436 60.336 203.649 L 64.47 206.956 L 71.91 209.436 C 81.004 211.916 90.098 211.09 97.539 208.61 C 97.56 211.365 97.56 214.121 97.539 216.877 C 97.508 226.129 98.902 235.331 101.672 244.159 C 102.499 247.466 104.979 253.253 109.113 257.386 C 114.073 262.347 119.86 264 125.647 264 L 133.088 263.173 C 141.355 261.52 150.449 258.213 157.063 249.119 C 163.677 240.025 166.157 226.797 166.984 205.303 L 166.984 203.649 L 167.81 201.996 L 168.637 202.823 L 169.464 202.823 C 177.731 202.823 187.652 201.169 194.265 197.862 C 198.399 196.209 214.107 187.942 210.8 176.367" style=""/>
    <path d="M 196.746 178.848 C 171.944 183.808 170.29 175.541 170.29 175.541 C 196.746 136.685 207.493 87.908 197.572 76.334 C 171.944 43.265 128.128 58.973 127.301 58.973 L 110.766 57.319 C 99.192 57.319 90.925 60.626 84.311 65.587 C 84.311 65.587 5.773 32.518 9.079 106.096 C 9.906 121.804 32.228 224.317 57.856 193.729 L 76.044 172.234 C 81.004 175.541 85.965 177.194 91.752 176.367 L 92.578 176.367 L 92.578 180.501 C 85.965 187.942 87.618 188.768 74.391 192.075 C 61.163 194.555 68.604 199.516 74.391 201.169 C 80.178 202.823 95.059 204.476 104.153 191.248 L 104.153 192.902 C 106.633 194.555 108.286 206.129 108.286 216.877 C 107.459 226.797 107.459 234.238 109.94 239.198 C 111.593 244.985 114.073 257.386 131.434 254.079 C 145.489 250.772 153.756 242.505 154.583 229.278 C 155.409 219.357 157.063 221.01 157.063 212.743 L 157.89 208.61 C 159.543 195.382 158.716 191.248 167.81 192.902 L 169.464 193.729 C 176.077 193.729 185.171 192.075 190.132 189.595 C 200.879 184.635 207.493 176.367 196.746 178.848" fill="#336791" style=""/>
    <path d="M 89.272 113.536 L 84.311 113.536 L 83.485 115.19 L 84.311 117.67 C 85.138 119.324 86.791 120.15 88.445 120.15 L 89.272 120.15 C 91.752 120.15 94.232 118.497 94.232 116.843 C 95.059 115.19 91.752 113.536 89.272 113.536 M 162.85 113.536 C 162.85 111.883 159.543 111.056 157.063 111.883 C 154.583 111.883 152.103 112.71 152.103 114.363 C 152.929 116.017 154.583 117.67 157.063 117.67 L 157.89 117.67 L 161.196 116.017 L 162.85 113.536" fill="#FFF" style=""/>
    <path d="M 205.013 178.021 C 204.186 175.541 200.879 173.887 195.919 175.541 C 181.038 178.021 176.077 176.367 173.597 174.714 C 185.171 157.353 195.092 135.858 200.052 116.017 C 202.533 106.923 204.186 97.829 204.186 91.215 C 204.186 82.948 202.533 77.161 200.052 73.854 C 188.777 59.357 171.289 51.074 152.929 51.532 C 139.702 51.532 128.128 54.839 125.647 56.493 C 121.514 54.839 115.727 54.012 110.766 54.012 C 100.019 54.012 91.752 56.493 84.311 61.453 C 81.004 59.799 72.737 57.319 62.816 55.666 C 45.455 53.186 32.228 54.839 22.307 62.28 C 10.733 70.547 4.946 85.428 6.599 106.096 C 6.599 112.71 10.733 135.031 17.347 155.699 C 25.614 182.981 34.708 197.862 43.802 201.169 L 47.935 201.996 C 51.242 201.996 55.376 200.342 59.51 194.555 L 76.871 176.367 C 80.178 178.021 84.311 178.848 88.445 178.848 L 88.445 179.674 L 86.791 182.154 C 83.485 186.288 82.658 186.288 73.564 188.768 C 71.084 188.768 63.643 190.422 63.643 195.382 C 63.643 201.169 71.91 203.649 72.737 203.649 L 82.658 204.476 C 90.098 204.476 96.712 201.996 102.499 197.862 C 101.672 216.877 102.499 235.891 104.979 241.678 C 107.459 246.639 111.593 258.213 126.474 258.213 L 133.915 257.386 C 148.796 254.079 155.409 247.466 157.89 232.585 L 162.85 195.382 L 171.944 196.209 C 178.558 196.209 185.998 194.555 190.958 192.075 C 196.746 189.595 206.666 183.808 205.013 178.021 Z M 168.637 109.403 L 167.81 117.67 L 166.157 127.591 L 166.984 139.165 C 167.81 146.605 169.464 154.873 165.33 162.313 L 163.677 159.006 L 161.196 154.046 C 155.409 144.125 143.009 121.804 149.622 112.71 C 151.276 110.23 156.236 107.749 168.637 109.403 Z M 153.756 58.146 C 171.117 58.146 185.171 64.76 195.092 77.161 C 202.533 87.081 194.265 130.898 170.29 168.927 L 169.464 168.1 C 175.251 157.353 174.424 147.432 173.597 138.338 L 172.771 127.591 L 173.597 118.497 C 174.364 114.132 174.642 109.695 174.424 105.269 C 174.424 101.136 169.464 88.735 159.543 77.161 C 154.583 71.374 146.315 63.933 136.395 59.799 L 153.756 58.146 Z M 55.376 191.248 C 50.416 197.035 47.109 196.209 45.455 195.382 C 38.842 192.902 29.748 178.021 23.134 153.219 C 16.52 132.551 12.386 111.883 12.386 106.096 C 11.56 87.081 15.693 73.854 25.614 67.24 C 42.148 55.666 68.604 62.28 78.524 65.587 L 78.524 66.413 C 61.163 83.774 61.163 113.536 61.163 116.017 L 61.163 118.497 C 61.99 124.284 62.816 133.378 61.163 144.125 C 59.531 154.567 63.259 165.129 71.084 172.234 L 55.376 191.248 Z M 73.564 166.447 C 68.604 160.66 66.123 153.219 66.95 144.952 C 68.604 133.378 67.777 123.457 67.777 118.497 L 67.777 116.843 C 70.257 114.363 81.831 107.749 90.098 110.23 C 94.232 111.056 96.712 113.536 97.539 117.67 C 102.499 140.818 98.366 150.739 94.232 159.006 L 92.578 163.14 L 91.752 164.793 L 89.272 173.061 C 83.485 173.061 77.697 170.58 73.564 166.447 Z M 74.391 197.862 L 70.257 196.209 L 75.217 194.555 C 85.965 192.075 87.618 190.422 90.925 186.288 L 94.232 182.154 C 96.712 179.674 97.539 180.501 99.192 181.328 C 100.019 181.328 101.672 182.981 102.499 185.461 L 101.672 188.768 C 94.232 199.516 82.658 199.516 74.391 197.862 Z M 132.261 251.599 C 119.034 254.079 114.073 247.466 110.766 239.198 C 107.822 220.891 106.99 202.305 108.286 183.808 C 106.633 179.674 104.153 176.367 101.672 175.541 C 100.019 174.714 97.539 173.887 95.059 174.714 L 97.539 166.447 L 98.366 165.62 L 100.019 161.486 C 104.153 153.219 109.113 141.645 103.326 116.843 C 101.672 106.923 94.232 102.789 84.311 103.616 C 78.472 104.434 72.852 106.401 67.777 109.403 C 68.604 99.482 71.91 82.121 82.658 70.547 C 90.098 63.933 99.192 59.799 110.766 60.626 C 133.088 60.626 147.142 72.2 155.409 82.121 C 162.023 90.388 166.157 98.655 167.81 102.789 C 156.236 101.962 148.796 103.616 144.662 109.403 C 136.395 121.804 149.622 145.779 155.409 156.526 L 157.89 161.486 L 164.503 172.234 L 166.157 173.887 C 162.85 175.541 157.063 177.194 157.063 188.768 L 152.103 230.931 C 149.622 244.159 145.489 248.292 132.261 251.599 Z M 188.478 187.115 C 185.171 188.768 179.384 189.595 173.597 189.595 C 166.984 190.422 164.503 189.595 163.677 188.768 C 162.85 181.328 166.157 180.501 168.637 179.674 L 170.29 179.674 L 171.117 180.501 C 176.077 183.808 184.345 183.808 196.746 181.328 L 197.572 181.328 L 188.478 187.115 Z" fill="#FFF" style=""/>
  </g>
</svg>
