<svg
  viewBox="0 0 24 24"
  fill="#117ec6"
  xmlns="http://www.w3.org/2000/svg"
>
  <path d="M 3.105 1.064 C 2.093 1.068 1.273 1.888 1.27 2.9 L 1.27 19.508 C 1.273 20.52 2.093 21.339 3.105 21.342 L 12.523 21.342 C 12.452 20.441 12.435 19.538 12.471 18.635 C 12.465 18.573 12.46 18.494 12.455 18.435 C 12.333 17.636 12.175 16.842 11.982 16.057 C 11.861 15.587 11.707 15.159 11.613 15 C 11.497 14.803 11.515 14.69 11.516 14.568 C 11.516 14.448 11.531 14.323 11.553 14.182 C 11.612 13.83 11.69 13.481 11.787 13.137 L 12.004 13.109 C 11.987 13.074 11.99 13.044 11.973 13.012 L 11.932 12.631 C 12.052 12.231 12.179 11.833 12.314 11.437 L 12.514 11.418 C 12.506 11.402 12.504 11.38 12.496 11.365 L 12.453 11.049 C 13.083 7.769 15.04 3.606 17.253 1.258 C 17.319 1.189 17.386 1.13 17.451 1.064 L 3.105 1.064 Z" transform="matrix(1, 0, 0, 1, 4.440892098500626e-16, 0)"/>
  <path d="M 21.752 0.573 C 20.72 -0.347 19.472 0.023 18.239 1.117 C 18.049 1.287 17.866 1.466 17.692 1.652 C 15.583 3.889 13.626 8.032 13.018 11.196 C 13.255 11.676 13.44 12.289 13.562 12.757 C 13.623 12.99 13.678 13.224 13.726 13.46 C 13.726 13.46 13.707 13.389 13.63 13.164 L 13.58 13.018 C 13.57 12.991 13.559 12.964 13.547 12.938 C 13.409 12.618 13.029 11.943 12.861 11.649 C 12.718 12.072 12.591 12.467 12.485 12.825 C 12.969 13.709 13.263 15.225 13.263 15.225 C 13.263 15.225 13.238 15.126 13.116 14.783 C 13.009 14.48 12.472 13.539 12.344 13.319 C 12.127 14.123 12.04 14.665 12.118 14.797 C 12.27 15.053 12.414 15.495 12.54 15.983 C 12.826 17.083 13.025 18.423 13.025 18.423 L 13.042 18.647 C 13.004 19.563 13.023 20.481 13.098 21.395 C 13.193 22.541 13.371 23.525 13.598 24.052 L 13.753 23.968 C 13.419 22.93 13.283 21.569 13.343 20.001 C 13.433 17.603 13.985 14.711 15.004 11.697 C 16.727 7.147 19.117 3.496 21.304 1.752 C 19.311 3.552 16.612 9.382 15.804 11.54 C 14.9 13.956 14.259 16.224 13.873 18.397 C 14.539 16.36 16.694 15.485 16.694 15.485 C 16.694 15.485 17.751 14.181 18.986 12.319 C 18.246 12.488 17.031 12.777 16.624 12.948 C 16.024 13.199 15.862 13.285 15.862 13.285 C 15.862 13.285 17.807 12.101 19.475 11.565 C 21.769 7.952 24.269 2.819 21.752 0.573" style="fill: rgb(0, 58, 85);" transform="matrix(1, 0, 0, 1, 4.440892098500626e-16, 0)"/>
</svg>
