<svg
  viewBox="0 0 24 24"
  xmlns="http://www.w3.org/2000/svg"
>
  <path d="M 1.874 -0.004 L 22.08 -0.004 C 23.113 -0.004 23.951 0.834 23.951 1.866 L 23.951 22.073 C 23.951 23.107 23.113 23.945 22.08 23.945 L 1.874 23.945 C 0.84 23.945 0.002 23.107 0.002 22.073 L 0.002 1.866 C 0.002 0.834 0.84 -0.004 1.874 -0.004 Z" fill="#3178C6" style="" transform="matrix(1, 0, 0, 1, 4.440892098500626e-16, 1.3322676295501878e-15)"/>
  <path d="M 14.083 18.75 L 14.083 21.334 C 14.504 21.55 15.001 21.711 15.575 21.818 C 16.147 21.926 16.753 21.981 17.388 21.981 C 18.008 21.981 18.597 21.921 19.154 21.802 C 19.712 21.684 20.201 21.489 20.621 21.218 C 21.041 20.945 21.373 20.59 21.619 20.151 C 21.864 19.712 21.987 19.17 21.987 18.524 C 21.987 18.056 21.917 17.645 21.776 17.293 C 21.638 16.942 21.432 16.623 21.17 16.352 C 20.907 16.078 20.59 15.831 20.221 15.613 C 19.851 15.395 19.436 15.19 18.972 14.996 C 18.632 14.855 18.328 14.72 18.06 14.588 C 17.79 14.456 17.56 14.322 17.373 14.184 C 17.184 14.047 17.038 13.901 16.936 13.748 C 16.833 13.594 16.782 13.421 16.782 13.227 C 16.782 13.049 16.828 12.89 16.919 12.747 C 17.012 12.605 17.141 12.482 17.308 12.379 C 17.474 12.278 17.679 12.198 17.921 12.141 C 18.165 12.085 18.433 12.056 18.73 12.056 C 18.945 12.056 19.173 12.072 19.413 12.105 C 19.652 12.137 19.893 12.186 20.136 12.255 C 20.377 12.322 20.614 12.407 20.844 12.508 C 21.065 12.607 21.277 12.726 21.477 12.864 L 21.477 10.449 C 21.084 10.3 20.655 10.187 20.188 10.115 C 19.722 10.042 19.187 10.006 18.584 10.006 C 17.971 10.006 17.388 10.071 16.839 10.203 C 16.289 10.335 15.805 10.542 15.388 10.822 C 14.971 11.102 14.641 11.458 14.399 11.891 C 14.157 12.325 14.035 12.843 14.035 13.445 C 14.035 14.215 14.257 14.872 14.701 15.415 C 15.146 15.959 15.82 16.419 16.725 16.796 C 17.06 16.932 17.392 17.075 17.72 17.225 C 18.027 17.364 18.293 17.51 18.516 17.661 C 18.739 17.811 18.916 17.975 19.045 18.152 C 19.175 18.331 19.239 18.533 19.239 18.758 C 19.241 18.922 19.199 19.081 19.118 19.223 C 19.037 19.365 18.915 19.489 18.75 19.594 C 18.585 19.7 18.381 19.781 18.136 19.84 C 17.891 19.9 17.603 19.929 17.275 19.929 C 16.715 19.929 16.16 19.831 15.61 19.635 C 15.061 19.439 14.552 19.143 14.083 18.75 Z M 9.776 12.321 L 13.1 12.321 L 13.1 10.193 L 3.838 10.193 L 3.838 12.321 L 7.144 12.321 L 7.144 21.793 L 9.776 21.793 L 9.776 12.321 Z" fill="#FFF" style="" transform="matrix(1, 0, 0, 1, 4.440892098500626e-16, 1.3322676295501878e-15)"/>
</svg>
